<svg xmlns="http://www.w3.org/2000/svg" width="1200" height="720" viewBox="0 0 1200 720">
  <rect width="100%" height="100%" fill="#ffffff"/>
  <style>
    text { font-family: Microsoft YaHei, SimHei, Arial, sans-serif; fill: #111111; }
    .title { font-size: 34px; font-weight: 700; }
    .subtitle { font-size: 20px; fill: #555555; }
    .label { font-size: 20px; font-weight: 600; }
    .small { font-size: 16px; fill: #555555; }
    .tiny { font-size: 14px; fill: #666666; }
    .card { fill: #ffffff; stroke: #c8c8c8; stroke-width: 2; rx: 22; }
  </style><circle cx="600" cy="360" r="100" fill="#ffffff" stroke="#333333" stroke-width="3"/><text x="600" y="345" text-anchor="middle" class="label">核心研究</text><text x="600" y="380" text-anchor="middle" class="small">问题·证据·边界</text><line x1="600" y1="360" x2="600" y2="145" stroke="#9a9a9a" stroke-width="3"/><rect x="470" y="90" width="260" height="110" rx="24" fill="#eeeeee" stroke="#9a9a9a" stroke-width="2"/><text x="600" y="135" text-anchor="middle" class="label">学术同行</text><text x="600" y="170" text-anchor="middle" class="small">期刊论文 / 会议报告</text><line x1="600" y1="360" x2="900" y2="280" stroke="#9a9a9a" stroke-width="3"/><rect x="770" y="225" width="260" height="110" rx="24" fill="#f2f2f2" stroke="#9a9a9a" stroke-width="2"/><text x="900" y="270" text-anchor="middle" class="label">政策实践者</text><text x="900" y="305" text-anchor="middle" class="small">政策简报 / 行业报告</text><line x1="600" y1="360" x2="820" y2="555" stroke="#9a9a9a" stroke-width="3"/><rect x="690" y="500" width="260" height="110" rx="24" fill="#f5f5f5" stroke="#9a9a9a" stroke-width="2"/><text x="820" y="545" text-anchor="middle" class="label">跨学科研究者</text><text x="820" y="580" text-anchor="middle" class="small">案例说明 / 研究解读</text><line x1="600" y1="360" x2="380" y2="555" stroke="#9a9a9a" stroke-width="3"/><rect x="250" y="500" width="260" height="110" rx="24" fill="#e6e6e6" stroke="#9a9a9a" stroke-width="2"/><text x="380" y="545" text-anchor="middle" class="label">公众受众</text><text x="380" y="580" text-anchor="middle" class="small">科普文章 / 短视频</text><line x1="600" y1="360" x2="300" y2="280" stroke="#9a9a9a" stroke-width="3"/><rect x="170" y="225" width="260" height="110" rx="24" fill="#eaeaea" stroke="#9a9a9a" stroke-width="2"/><text x="300" y="270" text-anchor="middle" class="label">研究团队</text><text x="300" y="305" text-anchor="middle" class="small">数据图册 / 代码附录</text>
</svg>